#!OML:ASF F:\VICON\USERDATA\INSTALL\Justin_Nancy\Justin_Nancy.ASF
:FULLY-SPECIFIED
:DEGREES
190
root -3.98904 17.4449 9.35816 -0.400058 -38.7091 -2.83422
lowerback 7.15188 0.470084 2.36549
upperback 1.02352 0.901016 4.03222
thorax -2.9828 0.42526 2.75723
lowerneck -13.692 -4.01421 -10.2743
upperneck 22.4166 -4.42997 4.71742
head 9.70367 -2.45788 2.80113
rclavicle -8.31914e-014 3.97569e-015
rhumerus -33.3521 -16.0114 -74.4991
rradius 27.7529
rwrist 8.49041
rhand -17.1297 7.12482
rfingers 7.12502
rthumb 9.11023 -22.6584
lclavicle -8.31914e-014 3.97569e-015
lhumerus -31.5767 7.09684 85.0661
lradius 29.2028
lwrist -9.29146
lhand -14.4 27.3678
lfingers 7.12502
lthumb 11.7434 57.0186
rfemur -5.56964 5.73944 30.6126
rtibia 23.6131
rfoot -10.4596 -8.24331
rtoes 9.56333
lfemur -23.6504 -0.769003 -14.3623
ltibia 67.6683
lfoot -2.75205 -0.161404
ltoes -0.663042
191
root -4.13387 17.4212 9.53473 -0.145715 -39.1448 -3.10342
lowerback 7.06273 0.589809 2.63361
upperback 1.06115 1.0722 3.97827
thorax -2.89325 0.507389 2.53416
lowerneck -13.7799 -4.06006 -10.197
upperneck 22.3962 -4.52273 4.8025
head 9.72002 -2.48313 2.80497
rclavicle 3.34952e-014 -2.54444e-014
rhumerus -32.9112 -15.5307 -74.8894
rradius 28.5514
rwrist 7.67779
rhand -17.2269 7.4385
rfingers 7.12502
rthumb 9.01645 -22.3488
lclavicle 3.34952e-014 -2.54444e-014
lhumerus -31.8698 7.2375 84.895
lradius 28.7779
lwrist -9.07423
lhand -14.5779 27.0608
lfingers 7.12502
lthumb 11.5718 56.7213
rfemur -4.73504 6.01596 30.9945
rtibia 23.5638
rfoot -10.9898 -8.47123
rtoes 8.09086
lfemur -24.9125 -0.506384 -14.2639
ltibia 66.9257
lfoot -4.03607 1.01019
ltoes -0.398099
192
root -4.27944 17.3985 9.72147 0.114992 -39.5385 -3.42526
lowerback 7.03683 0.736511 2.97067
upperback 1.03701 1.29162 3.96491
thorax -2.90152 0.612535 2.31032
lowerneck -13.6493 -4.12611 -10.1235
upperneck 22.2884 -4.63429 4.76179
head 9.66373 -2.53308 2.76434
rclavicle 6.79347e-014 -3.4191e-014
rhumerus -32.6281 -16.2106 -74.3689
rradius 28.8321
rwrist 8.9255
rhand -15.5372 10.2133
rfingers 7.12502
rthumb 10.6466 -19.497
lclavicle 6.79347e-014 -3.4191e-014
lhumerus -32.2926 7.11307 84.8686
lradius 28.4667
lwrist -8.72942
lhand -14.0158 26.8742
lfingers 7.12502
lthumb 12.1139 56.5035
rfemur -3.78007 6.11577 31.3558
rtibia 23.4034
rfoot -11.7165 -8.55379
rtoes 8.05139
lfemur -26.0234 -0.480018 -14.1154
ltibia 65.8502
lfoot -5.22805 2.09219
ltoes -0.0314319
193
root -4.42288 17.3784 9.90917 0.494307 -39.6558 -3.86561
lowerback 6.97288 0.60866 3.3849
upperback 0.889694 1.15887 4.09328
thorax -3.01035 0.540485 2.22447
lowerneck -13.6649 -3.82059 -10.036
upperneck 22.6278 -4.1978 4.59289
head 9.74416 -2.34945 2.7503
rclavicle 3.67255e-014 3.81667e-014
rhumerus -32.1944 -16.4233 -73.921
rradius 28.8566
rwrist 9.6691
rhand -14.0098 12.5556
rfingers 7.12502
rthumb 12.1197 -17.0733
lclavicle 3.67255e-014 3.81667e-014
lhumerus -33.1999 7.67846 84.7256
lradius 28.3699
lwrist -8.52376
lhand -13.5284 27.0207
lfingers 7.12502
lthumb 12.5838 56.6217
rfemur -2.93249 5.95224 31.8054
rtibia 23.29
rfoot -12.2588 -8.6061
rtoes 6.69526
lfemur -27.1533 -0.717734 -13.8269
ltibia 64.5189
lfoot -6.32262 2.84406
ltoes -3.2746
194
root -4.56975 17.3566 10.0909 0.648252 -40.1768 -4.03346
lowerback 6.80801 0.630397 3.57279
upperback 0.979694 1.1848 4.10163
thorax -2.82149 0.55249 2.12683
lowerneck -14.1518 -3.53357 -9.48527
upperneck 22.9111 -3.78789 4.20762
head 9.88224 -2.15394 2.57384
rclavicle -5.65542e-014 -2.06736e-014
rhumerus -31.2978 -16.571 -74.0142
rradius 28.9535
rwrist 9.65924
rhand -13.5916 13.3388
rfingers 7.12502
rthumb 12.5229 -16.266
lclavicle -5.65542e-014 -2.06736e-014
lhumerus -33.6526 8.12727 84.5863
lradius 28.1514
lwrist -7.97117
lhand -13.634 27.2277
lfingers 7.12502
lthumb 12.482 56.8349
rfemur -1.99678 5.9056 32.0238
rtibia 23.2306
rfoot -12.7369 -8.55537
rtoes 4.01183
lfemur -28.0063 -0.5697 -13.778
ltibia 62.9532
lfoot -7.10851 3.46976
ltoes -6.9621
195
root -4.71512 17.3202 10.2647 1.07769 -40.7127 -4.45308
lowerback 6.81836 0.86781 3.94478
upperback 1.04033 1.52201 4.03205
thorax -2.75654 0.716567 1.81581
lowerneck -14.6753 -3.71426 -9.23524
upperneck 22.917 -4.05482 4.24137
head 9.99826 -2.24338 2.50327
rclavicle -9.34288e-015 -3.81667e-014
rhumerus -30.587 -16.2441 -74.5289
rradius 29.621
rwrist 8.47722
rhand -13.8917 13.3827
rfingers 7.12502
rthumb 12.2335 -16.2395
lclavicle -9.34288e-015 -3.81667e-014
lhumerus -33.7655 7.96281 84.4834
lradius 27.8473
lwrist -7.59888
lhand -13.2537 27.3295
lfingers 7.12502
lthumb 12.8486 56.914
rfemur -1.19335 6.11963 32.4519
rtibia 23.1757
rfoot -13.5795 -8.49198
rtoes 4.87959
lfemur -28.8552 -0.171016 -13.5204
ltibia 61.25
lfoot -7.76129 3.86889
ltoes -5.63903
